<svg xmlns="http://www.w3.org/2000/svg" xmlns:svg="http://www.w3.org/2000/svg" id="svg2" width="210mm" height="297mm" version="1.1" viewBox="0 0 744.094 1052.362"><defs id="defs4"><style id="style4300" type="text/css">.fil2{fill:none}.fil0,.fil1{fill:#000}.fil0{fill-rule:nonzero}</style></defs><metadata id="metadata7"/><g id="layer1"><path id="path4140" d="m 555.87527,210.40941 0,-5.84461 -12.95555,0 0,-10.5203 c 0,-1.65597 -1.26633,-2.9223 -2.9223,-2.9223 l -10.22807,0 0,-12.66332 -5.84461,0 0,12.66332 -8.27986,0 0,-12.66332 -5.84461,0 0,12.66332 -8.27986,0 0,-12.66332 -5.84461,0 0,12.66332 -10.22807,0 c -1.65597,0 -2.9223,1.26633 -2.9223,2.9223 l 0,10.42289 -12.95555,0 0,5.84461 12.95555,0 0,8.37727 -12.95555,0 0,5.84461 12.95555,0 0,8.27986 -12.95555,0 0,5.84461 12.95555,0 0,10.03325 c 0,1.65597 1.26633,2.9223 2.9223,2.9223 l 10.22807,0 0,13.15037 5.84461,0 0,-13.15037 8.27986,0 0,13.15037 5.84461,0 0,-13.15037 8.27986,0 0,13.15037 5.84461,0 0,-13.15037 10.22807,0 c 1.65597,0 2.9223,-1.26633 2.9223,-2.9223 l 0,-10.03325 12.95555,0 0,-5.84461 -12.95555,0 0,-8.27986 12.95555,0 0,-5.84461 -12.95555,0 0,-8.27986 12.95555,0 z m -28.63858,22.50174 c 0,1.65597 -1.26633,2.92231 -2.92231,2.92231 l -23.18361,0 c -1.65597,0 -2.92231,-1.26634 -2.92231,-2.92231 l 0,-23.08621 c 0,-1.65597 1.26634,-2.9223 2.92231,-2.9223 l 23.0862,0 c 1.65598,0 2.92231,1.26633 2.92231,2.9223 l 0.0974,23.08621 0,0 z"/><g id="g4159" transform="translate(93.162071,246.53303)"><g id="g4161"><path style="fill:#000" id="path4163" d="m 63.224,47.389 c -1.026,-1.025 -2.689,-1.025 -3.716,0 -1.025,1.026 -1.025,2.689 0,3.716 1.863,1.863 2.89,4.337 2.89,6.968 0,2.63 -1.026,5.104 -2.89,6.967 -1.025,1.026 -1.025,2.689 0,3.716 0.514,0.513 1.186,0.77 1.858,0.77 0.672,0 1.345,-0.257 1.857,-0.77 2.855,-2.855 4.429,-6.649 4.429,-10.683 0,-4.035 -1.573,-7.829 -4.428,-10.684 z"/><path style="fill:#000" id="path4165" d="m 70.752,40.302 c -1.025,-1.026 -2.689,-1.026 -3.715,0 -1.026,1.026 -1.026,2.689 0,3.715 4.049,4.05 6.279,9.43 6.279,15.148 0,5.718 -2.23,11.098 -6.279,15.147 -1.026,1.026 -1.026,2.689 0,3.716 0.512,0.513 1.185,0.77 1.857,0.77 0.672,0 1.344,-0.257 1.857,-0.77 5.042,-5.043 7.819,-11.742 7.819,-18.863 0.001,-7.121 -2.776,-13.821 -7.818,-18.863 z"/><path style="fill:#000" id="path4167" d="m 78.924,32.445 c -1.025,-1.026 -2.689,-1.026 -3.715,0 -1.026,1.026 -1.026,2.689 0,3.715 6.15,6.15 9.537,14.32 9.537,23.006 0,8.685 -3.387,16.854 -9.537,23.005 -1.027,1.026 -1.027,2.689 0,3.716 0.512,0.513 1.185,0.77 1.857,0.77 0.672,0 1.344,-0.257 1.857,-0.77 C 86.066,78.744 90,69.254 90,59.166 90,49.077 86.066,39.587 78.924,32.445 Z"/><path style="fill:#000" id="path4169" d="m 55.266,36.488 c 0.032,-0.043 0.064,-0.086 0.094,-0.131 0.021,-0.035 0.041,-0.071 0.062,-0.106 0.021,-0.037 0.044,-0.074 0.063,-0.112 0.022,-0.043 0.042,-0.087 0.062,-0.131 0.014,-0.033 0.029,-0.065 0.043,-0.098 0.02,-0.048 0.035,-0.096 0.051,-0.145 0.012,-0.031 0.023,-0.063 0.031,-0.095 0.015,-0.048 0.025,-0.097 0.037,-0.145 0.008,-0.035 0.017,-0.068 0.023,-0.103 0.008,-0.045 0.014,-0.091 0.021,-0.136 0.005,-0.039 0.011,-0.078 0.015,-0.117 0.004,-0.041 0.006,-0.082 0.007,-0.123 0.002,-0.044 0.005,-0.088 0.005,-0.133 -10e-4,-0.037 -0.004,-0.074 -0.006,-0.11 C 55.772,34.755 55.77,34.707 55.765,34.659 55.762,34.624 55.756,34.589 55.75,34.555 55.743,34.506 55.736,34.458 55.727,34.409 55.719,34.372 55.709,34.336 55.701,34.3 55.69,34.255 55.679,34.21 55.665,34.165 55.653,34.123 55.637,34.081 55.622,34.039 55.608,34.001 55.596,33.964 55.581,33.927 55.56,33.876 55.534,33.826 55.511,33.777 55.497,33.75 55.486,33.722 55.471,33.695 55.441,33.639 55.408,33.585 55.373,33.53 55.362,33.512 55.352,33.494 55.341,33.476 55.339,33.473 55.337,33.471 55.335,33.468 55.304,33.422 55.269,33.377 55.233,33.332 55.212,33.305 55.193,33.276 55.171,33.249 55.149,33.222 55.124,33.197 55.1,33.17 55.063,33.129 55.026,33.087 54.986,33.049 54.984,33.046 54.982,33.043 54.979,33.041 L 32.819,11.65 C 32.762,11.594 32.702,11.544 32.641,11.494 L 29.999,4.055 C 29.514,2.688 28.012,1.973 26.645,2.458 25.277,2.943 24.562,4.445 25.048,5.813 l 2.86,8.057 c 0.201,0.566 0.578,1.02 1.046,1.323 0.067,0.082 0.137,0.162 0.215,0.237 l 19.81,19.123 -7.508,4.994 c -0.31,0.206 -0.561,0.467 -0.751,0.761 -0.983,0.56 -1.527,1.715 -1.259,2.874 l 1.53,6.619 C 18.496,50.645 7.071,59.751 6.557,60.171 6.556,60.172 6.555,60.173 6.553,60.174 6.486,60.23 6.421,60.287 6.36,60.349 6.325,60.383 6.295,60.42 6.262,60.456 6.238,60.483 6.212,60.51 6.189,60.537 6.151,60.583 6.117,60.632 6.083,60.68 6.066,60.7 6.05,60.721 6.036,60.742 c -0.033,0.049 -0.061,0.099 -0.09,0.148 -0.014,0.023 -0.029,0.047 -0.042,0.071 -0.026,0.049 -0.049,0.1 -0.072,0.15 -0.013,0.026 -0.026,0.053 -0.038,0.081 -0.022,0.054 -0.042,0.108 -0.06,0.164 -0.009,0.025 -0.019,0.05 -0.027,0.075 -0.024,0.077 -0.044,0.155 -0.061,0.234 0,0.004 -0.001,0.007 -0.002,0.011 -0.04,0.192 -0.056,0.39 -0.052,0.586 0.016,4.987 2.06,10.239 5.762,14.796 3.54,4.356 8.236,7.692 13.225,9.394 2.439,0.832 4.83,1.241 7.125,1.241 5.743,0 10.882,-2.563 14.674,-7.479 0.887,-1.148 0.674,-2.798 -0.475,-3.685 -1.149,-0.887 -2.799,-0.674 -3.685,0.476 -5.267,6.826 -12.25,5.732 -15.943,4.473 C 18.243,78.74 11.627,70.881 10.911,63.509 c 1.379,-0.916 4.127,-2.554 8.211,-4.139 5.146,-1.998 13.44,-4.28 24.58,-4.374 0.192,0.045 0.391,0.07 0.594,0.07 0.196,0 0.395,-0.022 0.594,-0.068 0.005,-10e-4 0.009,-0.003 0.014,-0.004 0.653,0.004 1.314,0.014 1.986,0.033 1.448,0.038 2.66,-1.101 2.702,-2.551 0.041,-1.45 -1.101,-2.66 -2.551,-2.702 -0.224,-0.006 -0.443,-0.01 -0.665,-0.015 l -1.436,-6.211 9.669,-6.432 c 0.002,-10e-4 0.003,-0.002 0.004,-0.003 0.046,-0.03 0.09,-0.064 0.133,-0.098 0.029,-0.022 0.061,-0.043 0.088,-0.066 0.024,-0.02 0.047,-0.042 0.07,-0.063 0.045,-0.041 0.09,-0.081 0.133,-0.124 0.002,-0.003 0.005,-0.005 0.008,-0.008 0.016,-0.016 0.028,-0.033 0.043,-0.05 0.043,-0.046 0.084,-0.092 0.123,-0.141 0.018,-0.023 0.036,-0.05 0.055,-0.075 z"/><path style="fill:#000" id="path4171" d="m 12.823,27.316 c 4.563,-0.552 9.117,-2.811 12.823,-6.362 1.048,-1.003 1.083,-2.667 0.08,-3.714 -1.003,-1.048 -2.667,-1.083 -3.714,-0.08 -2.891,2.769 -6.377,4.523 -9.819,4.939 C 9.032,22.48 6.308,21.665 4.525,19.803 3.522,18.756 1.858,18.72 0.811,19.722 c -1.048,1.003 -1.084,2.667 -0.081,3.715 2.511,2.622 5.987,4.01 9.945,4.01 0.701,0.001 1.419,-0.043 2.148,-0.131 z"/></g></g><g id="g4280" transform="translate(172.67646,-173.79221)"><path id="path4208" d="m 372.0435,585.26447 -71.6,0 -0.2,-115.7 1.5,0 c 13.1,0 26.5,-0.1 39.4,-0.1 12.9,-0.1 26.3,-0.2 39.5,-0.1 l 1.5,0 0,1.5 c 0.1,12.2 0.2,23 0.3,31.8 0.1,12.1 0.2,20.1 0.3,22.5 0.1,1.1 0,3.9 -1.8,5.9 -1.2,1.4 -3.2,1.9 -4.6,2.2 l -0.2,0 c -1.2,0 -2.6,0 -4,0.1 l 0,51.9 z m -68.6,-3 65.6,0 0,-52.1 1.5,0 c 2,0 3.8,0 5.4,-0.1 1.3,-0.2 2.2,-0.6 2.7,-1.2 1.1,-1.2 1.1,-3.2 1.1,-3.8 -0.1,-2.5 -0.2,-10.5 -0.3,-22.6 -0.1,-8.4 -0.1,-18.7 -0.3,-30.3 -12.7,0 -25.5,0.1 -37.9,0.1 -12.4,0.1 -25.3,0.2 -37.9,0.1 l 0.1,109.9 z"/><rect id="rect4210" width="31" height="2" x="337.743" y="490.564"/><rect id="rect4212" width="52.8" height="2" x="316.043" y="498.864"/><path id="path4214" d="m 351.6435,517.76447 -3.6,-3.6 1.4,-1.4 1.9,1.9 c 1.3,-1.8 4.4,-5.6 9.2,-7.9 l 0.8,1.8 c -5.9,2.7 -9,8.1 -9.1,8.1 l -0.6,1.1 z"/><rect id="rect4216" width="20.8" height="2" x="316.043" y="508.964"/><rect id="rect4218" width="20.8" height="2" x="316.043" y="517.064"/><path id="path4220" d="m 351.6435,539.66447 -3.6,-3.6 1.4,-1.4 1.9,1.9 c 1.3,-1.8 4.4,-5.6 9.2,-7.9 l 0.8,1.8 c -5.9,2.7 -9,8.1 -9.1,8.1 l -0.6,1.1 z"/><rect id="rect4222" width="20.8" height="2" x="316.043" y="530.864"/><rect id="rect4224" width="20.8" height="2" x="316.043" y="539.164"/><rect id="rect4226" width="20.8" height="2" x="316.043" y="552.764"/><rect id="rect4228" width="20.8" height="2" x="316.043" y="561.064"/><rect id="rect4230" width="15.2" height="2" x="636.552" y="139.755" transform="matrix(0.70067802,0.71347762,-0.71347762,0.70067802,0,0)"/><rect id="rect4232" width="2" height="15.199" x="640.457" y="145.163" transform="matrix(0.71392383,0.70022337,-0.70022337,0.71392383,0,0)"/><rect id="rect4234" width="19.9" height="12.7" x="314.643" y="478.864"/></g><g style="clip-rule:evenodd;fill-rule:evenodd;image-rendering:optimizeQuality;shape-rendering:geometricPrecision;text-rendering:geometricPrecision" id="g4339" transform="matrix(0.01539024,0,0,0.01539024,328.32011,248.02653)"><g id="g4302"><g id="g4304"><path id="path4306" d="m 2927,3015 c 128,-128 297,-193 465,-193 168,0 336,64 465,193 128,128 193,297 193,465 0,168 -64,336 -193,465 -128,128 -297,193 -465,193 -168,0 -336,-64 -465,-193 -128,-128 -193,-297 -193,-465 0,-168 64,-336 193,-465 z" class="fil0" style="fill:#000;fill-rule:nonzero"/><path id="path4308" d="m 1002,3176 c 94,-94 218,-141 342,-141 124,0 247,47 342,141 94,94 141,218 141,342 0,124 -47,247 -141,342 -94,94 -218,141 -342,141 -124,0 -247,-47 -342,-141 -94,-94 -142,-218 -142,-342 0,-124 47,-247 142,-342 z" class="fil0" style="fill:#000;fill-rule:nonzero"/><path id="path4310" d="m 2044,2095 c 60,-60 140,-91 219,-91 79,0 159,30 219,91 l 0,0 c 60,60 91,140 91,219 0,79 -30,159 -91,219 l 0,0 0,0 c -60,60 -140,91 -219,91 -79,0 -159,-30 -219,-91 l 0,0 0,0 c -60,-60 -91,-140 -91,-219 0,-79 30,-159 91,-219 l 0,0 z" class="fil0" style="fill:#000;fill-rule:nonzero"/><path id="path4312" d="m 5164,3148 c 92,-92 212,-138 332,-138 120,0 240,46 332,138 92,92 138,212 138,332 0,120 -46,240 -138,332 -92,92 -212,138 -332,138 -120,0 -240,-46 -332,-138 -92,-92 -138,-212 -138,-332 0,-120 46,-240 138,-332 z" class="fil0" style="fill:#000;fill-rule:nonzero"/><path id="path4314" d="m 3069,5034 c 107,-107 248,-161 389,-161 141,0 282,54 389,161 107,107 161,248 161,389 0,141 -54,282 -161,389 -107,107 -248,161 -389,161 -141,0 -282,-54 -389,-161 -107,-107 -161,-248 -161,-389 0,-141 54,-282 161,-389 z" class="fil0" style="fill:#000;fill-rule:nonzero"/><path id="path4316" d="m 3998,1014 c 107,-107 248,-161 389,-161 141,0 282,54 389,161 107,107 161,248 161,389 0,141 -54,282 -161,389 -107,107 -248,161 -389,161 -141,0 -282,-54 -389,-161 l 0,0 c -107,-107 -161,-248 -161,-389 0,-141 54,-282 161,-389 l 0,0 z" class="fil0" style="fill:#000;fill-rule:nonzero"/><path id="path4318" d="m 3731,2960 c -19,40 -68,57 -108,38 -40,-19 -58,-68 -38,-108 l 509,-1061 c 19,-40 68,-57 108,-38 40,19 58,68 38,108 l -509,1061 z" class="fil1" style="fill:#000"/><path id="path4320" d="m 2391,2563 c -31,-32 -30,-83 2,-115 32,-31 84,-31 115,2 l 512,529 c 31,32 30,83 -2,115 -32,31 -84,31 -115,-2 l -512,-529 z" class="fil1" style="fill:#000"/><path id="path4322" d="m 1787,3591 c -45,1 -82,-35 -82,-80 -1,-45 35,-82 80,-82 l 988,-18 c 45,-1 82,35 82,80 1,45 -35,82 -80,82 l -988,18 z" class="fil1" style="fill:#000"/><path id="path4324" d="m 5070,3399 c 45,0 81,36 81,81 0,45 -36,81 -81,81 l -1072,0 c -45,0 -81,-36 -81,-81 0,-45 36,-81 81,-81 l 1072,0 z" class="fil1" style="fill:#000"/><path id="path4326" d="m 3521,4907 c 2,45 -34,82 -79,84 -45,1 -82,-34 -84,-78 l -28,-810 c -2,-45 34,-82 79,-84 45,-1 82,34 84,78 l 28,810 z" class="fil1" style="fill:#000"/></g></g><rect id="rect4328" width="6827" height="6827" x="0" y="0" class="fil2" style="fill:none"/><text id="text4330" x="0" y="6842" font-size="5" font-weight="bold" style="font-weight:700;font-size:5px;font-family:'Helvetica Neue',Helvetica,Arial-Unicode,Arial,Sans-serif;fill:#000">Created by IYIKON</text><text id="text4332" x="0" y="6847" font-size="5" font-weight="bold" style="font-weight:700;font-size:5px;font-family:'Helvetica Neue',Helvetica,Arial-Unicode,Arial,Sans-serif;fill:#000">from the Noun Project</text></g><path style="fill:none;fill-rule:evenodd;stroke:#000;stroke-width:5;stroke-linecap:round;stroke-linejoin:miter;stroke-miterlimit:4;stroke-dasharray:none;stroke-opacity:1" id="path4357" d="m 406.56986,281.7497 c 29.71676,0 26.54697,-13.86782 27.33942,-35.26389 0.79244,-21.39607 7.92447,-22.58474 22.18851,-23.77341 14.26405,-1.18867 14.26405,-1.18867 14.26405,-1.18867"/><path style="fill:none;fill-rule:evenodd;stroke:#000;stroke-width:5;stroke-linecap:round;stroke-linejoin:miter;stroke-miterlimit:4;stroke-dasharray:none;stroke-opacity:1" id="path4357-3" d="m 407.93588,322.5616 c 29.71676,0 26.54697,13.86782 27.33942,35.26389 0.79244,21.39607 7.92447,22.58474 22.18851,23.77341 14.26405,1.18867 14.26405,1.18867 14.26405,1.18867"/><path id="path4382" d="m 269.49058,335.2642 a 2.0001875,2.0001346 0 0 0 0.93749,-0.34374 l 30.49981,-20.65558 11.37493,0 c 3.28938,0 5.99996,-2.7105 5.99996,-5.9998 l 0,-13.99958 c 0,-3.2893 -2.71058,-5.9998 -5.99996,-5.9998 l -11.37493,0 -30.49981,-20.6555 a 2.0001875,2.0001346 0 0 0 -1.12499,-0.3438 l -10.99994,0 a 2.0001875,2.0001346 0 0 0 -1.99998,1.9999 l 0,63.99796 a 2.0001875,2.0001346 0 0 0 1.99998,1.99994 l 10.99994,0 a 2.0001875,2.0001346 0 0 0 0.1875,0 z m -0.8125,-3.99987 -8.37495,0 0,-59.99803 8.37495,0 30.49981,20.6556 a 2.0001875,2.0001346 0 0 0 1.12499,0.3437 l 11.99993,0 c 1.14257,0 1.99998,0.8574 1.99998,1.9999 l 0,13.99958 c 0,1.14255 -0.85741,1.99994 -1.99998,1.99994 l -11.99993,0 a 2.0001875,2.0001346 0 0 0 -1.12499,0.34373 l -30.49981,20.65558 z m -28.15607,-9.96843 a 2.0001877,2.0001348 0 0 0 1.18749,-3.43738 c -4.71417,-4.71403 -7.22006,-10.48179 -7.40621,-16.53072 -9.5e-4,-0.031 8.4e-4,-0.063 0,-0.094 0.18615,-6.0489 2.69204,-11.8167 7.40621,-16.5308 a 2.0001877,2.0001348 0 1 0 -2.81248,-2.8436 c -5.40281,5.4026 -8.40279,12.2497 -8.5937,19.3744 a 2.0001877,2.0001348 0 0 0 0,0.094 c 0.19091,7.12465 3.19088,13.97171 8.5937,19.37437 a 2.0001877,2.0001348 0 0 0 1.62499,0.59373 z m 8.84369,-3.99986 a 2.0001877,2.0001348 0 0 0 1.15624,-3.59364 c -4.68957,-3.64733 -7.04528,-7.99166 -7.2187,-12.4371 0.18286,-4.435 2.53966,-8.7666 7.2187,-12.4058 a 2.0001877,2.0001348 0 1 0 -2.43748,-3.1562 c -5.43002,4.2233 -8.58118,9.694 -8.7812,15.4995 a 2.0001877,2.0001348 0 0 0 0,0.1563 c 0.20002,5.80541 3.35116,11.27622 8.7812,15.49945 a 2.0001877,2.0001348 0 0 0 1.28124,0.43749 z" display="inline" overflow="visible" visibility="visible" style="color:#000;text-indent:0;text-transform:none;direction:ltr;block-progression:tb;baseline-shift:baseline;display:inline;overflow:visible;visibility:visible;fill:#000;fill-opacity:1;stroke:none;marker:none;enable-background:accumulate"/><path style="fill:none;fill-rule:evenodd;stroke:#000;stroke-width:5;stroke-linecap:round;stroke-linejoin:miter;stroke-opacity:1;stroke-miterlimit:4;stroke-dasharray:none" id="path4404" d="m 323.80603,302.78238 10.89732,0"/><rect style="color:#000;clip-rule:nonzero;display:inline;overflow:visible;visibility:visible;opacity:1;isolation:auto;mix-blend-mode:normal;color-interpolation:sRGB;color-interpolation-filters:linearRGB;solid-color:#000;solid-opacity:1;fill:#fff;fill-opacity:1;fill-rule:nonzero;stroke:none;stroke-width:5;stroke-linecap:round;stroke-linejoin:round;stroke-miterlimit:4;stroke-dasharray:none;stroke-dashoffset:0;stroke-opacity:1;color-rendering:auto;image-rendering:auto;shape-rendering:auto;text-rendering:auto;enable-background:accumulate" id="rect4180" width="44.056" height="86.277" x="208.809" y="258.887"/></g></svg>