<?xml version="1.0" encoding="UTF-8" standalone="no"?>
<svg
   xmlns:dc="http://purl.org/dc/elements/1.1/"
   xmlns:cc="http://creativecommons.org/ns#"
   xmlns:rdf="http://www.w3.org/1999/02/22-rdf-syntax-ns#"
   xmlns:svg="http://www.w3.org/2000/svg"
   xmlns="http://www.w3.org/2000/svg"
   xmlns:sodipodi="http://sodipodi.sourceforge.net/DTD/sodipodi-0.dtd"
   xmlns:inkscape="http://www.inkscape.org/namespaces/inkscape"
   version="1.1"
   x="0px"
   y="0px"
   viewBox="0 0 288.17999 613.3672375"
   enable-background="new 0 0 595 842"
   xml:space="preserve"
   id="svg4194"
   inkscape:version="0.91 r13725"
   sodipodi:docname="mic.svg"><metadata
     id="metadata4206"><rdf:RDF><cc:Work
         rdf:about=""><dc:format>image/svg+xml</dc:format><dc:type
           rdf:resource="http://purl.org/dc/dcmitype/StillImage" /></cc:Work></rdf:RDF></metadata><defs
     id="defs4204" /><sodipodi:namedview
     pagecolor="#ffffff"
     bordercolor="#666666"
     borderopacity="1"
     objecttolerance="10"
     gridtolerance="10"
     guidetolerance="10"
     inkscape:pageopacity="0"
     inkscape:pageshadow="2"
     inkscape:window-width="1855"
     inkscape:window-height="1056"
     id="namedview4202"
     showgrid="false"
     inkscape:zoom="2.12812"
     inkscape:cx="33.076458"
     inkscape:cy="194.55644"
     inkscape:window-x="65"
     inkscape:window-y="24"
     inkscape:window-maximized="1"
     inkscape:current-layer="svg4194" /><path
     style="clip-rule:evenodd;fill:#ff2a2a;fill-rule:evenodd"
     d="m 19.1663,425.45483 0,0 c 6.921906,0 12.584486,5.66258 12.584486,12.5845 l 0,21.74022 c 0,6.91272 -5.66258,12.58447 -12.584486,12.58447 l 0,0 c -6.912733,0 -12.5844864,-5.66255 -12.5844864,-12.58447 l 0,-21.74022 c 0,-6.92192 5.6625804,-12.5845 12.5844864,-12.5845 l 0,0 z m -4.982262,33.23998 0,-19.29499 c 0,-1.66386 0.257396,-3.11627 0.808883,-4.25613 0.441269,-0.91922 1.103107,-1.64543 1.994819,-2.0959 1.112281,-0.56069 1.562724,-1.90283 1.011104,-3.01512 -0.560661,-1.1031 -1.91199,-1.55358 -3.015097,-1.00196 -1.838467,0.92843 -3.171449,2.3533 -4.044681,4.15498 -0.864058,1.78334 -1.2593261,3.89766 -1.2593261,6.21413 l 0,19.29499 c 0,1.2502 1.0111041,2.26136 2.2612561,2.26136 1.231805,0 2.243042,-1.01116 2.243042,-2.26136 l 0,0 z m 7.317174,20.09474 c 4.357252,-0.53316 8.254888,-2.51873 11.205635,-5.46952 3.46554,-3.46555 5.607405,-8.25486 5.607405,-13.54968 0,-1.28697 -1.047932,-2.33488 -2.334912,-2.33488 -1.296154,0 -2.334912,1.04791 -2.334912,2.33488 0,4.00793 -1.617899,7.62971 -4.237728,10.24039 -2.629135,2.61984 -6.241588,4.23771 -10.249574,4.23771 -3.998679,0 -7.620439,-1.61787 -10.2404005,-4.23771 -2.6198291,-2.6199 -4.2377281,-6.24167 -4.2377281,-10.24039 0,-1.28697 -1.0479316,-2.33488 -2.3349118,-2.33488 -1.2869803,0 -2.33477892,1.04791 -2.33477892,2.33488 0,5.29482 2.14186482,10.08413 5.60740472,13.54968 2.9506149,2.95079 6.8574246,4.93636 11.2055026,5.46952 l 0,7.23449 -14.4873022,0 C 1.0479316,486.02404 0,487.07196 0,488.35891 c 0,1.28696 1.0479316,2.33489 2.3349118,2.33489 l 33.6444282,0 c 1.28698,0 2.334912,-1.04793 2.334912,-2.33489 0,-1.28695 -1.047932,-2.33487 -2.334912,-2.33487 l -14.487302,0 0,-7.23449 z"
     id="path4196"
     inkscape:connector-curvature="0"
     inkscape:export-xdpi="150"
     inkscape:export-ydpi="150" /></svg>