<svg xmlns="http://www.w3.org/2000/svg" xmlns:xlink="http://www.w3.org/1999/xlink" version="1.0" x="0px" y="0px" viewBox="0 0 100 125" enable-background="new 0 0 100 100" xml:space="preserve"><path d="M55.4339943,5.922719c-2.3461876-1.103447-5.1178627-0.7486901-7.1119423,0.9064808L25.0185318,26.1710815H11.4734879  c-3.6923041,0-6.6859756,2.9936714-6.6859756,6.6859741v33.9641876c0,3.6923065,2.9936714,6.6859741,6.6859756,6.6859741h13.5450439  L48.322052,92.8480148c1.2236252,1.0153046,2.7401161,1.5409088,4.2712326,1.5409088  c0.9640846,0,1.934227-0.2078476,2.8407097-0.6344299c2.3462524-1.101265,3.8441086-3.4594269,3.8441086-6.0515442V11.974267  C59.2781029,9.3821449,57.7802467,7.0239897,55.4339943,5.922719z"/><path d="M74.1153336,31.0147133c-0.5136414-0.8444519-1.0740662-1.6845512-1.6655121-2.4974461  c-1.4489517-1.9914284-4.2369537-2.4299774-6.2267532-0.9815674c-1.9908829,1.44841-2.4299736,4.2364101-0.9815674,6.2267513  c0.448349,0.6159248,0.8716583,1.2503548,1.2601547,1.8891335c2.612793,4.2853813,3.9937363,9.2215118,3.9937363,14.2740784  c0,5.871994-1.8243866,11.4719353-5.2761993,16.1936836c-1.4527588,1.9870758-1.0196533,4.7761688,0.9674225,6.2289276  c0.7933121,0.5800171,1.7144775,0.8585968,2.6269455,0.8585968c1.3738708,0,2.7292328-0.6322479,3.6019821-1.8271027  c4.5759354-6.2593994,6.9944839-13.677742,6.9944839-21.4541054C79.4100266,43.2353363,77.5785675,36.6951828,74.1153336,31.0147133  z"/><path d="M86.0078583,20.8638706c-1.4821472-1.9653111-4.2777634-2.3548908-6.2425308-0.8738327  c-1.9653091,1.4832325-2.3559799,4.2777615-0.873291,6.2430725c5.1820679,6.8687954,7.9216385,15.061945,7.9216385,23.6925526  c0,8.838459-2.8592758,17.1872215-8.2682343,24.1452522c-1.510437,1.9435501-1.1600342,4.743515,0.7835159,6.255043  c0.8134384,0.6322479,1.7765045,0.9380417,2.7324982,0.9380417c1.3287048,0,2.6438141-0.5909042,3.5225449-1.7215576  c6.6364594-8.5370178,10.14431-18.7781868,10.14431-29.6167793C95.7283096,39.3406258,92.3673706,29.2920742,86.0078583,20.8638706z  "/><text x="0" y="115" fill="#000000" font-size="5px" font-weight="bold" font-family="'Helvetica Neue', Helvetica, Arial-Unicode, Arial, Sans-serif">Created by Alexander Skowalsky</text><text x="0" y="120" fill="#000000" font-size="5px" font-weight="bold" font-family="'Helvetica Neue', Helvetica, Arial-Unicode, Arial, Sans-serif">from the Noun Project</text></svg>